<svg xmlns="http://www.w3.org/2000/svg" width="7790" height="4160" viewBox="0 0 1558 832">
  <defs>
    <style>
      .cls-1, .cls-2 {
        fill: #191919;
        fill-rule: evenodd;
      }

      .cls-1 {
        stroke: #191919;
        stroke-width: 1px;
      }
    </style>
  </defs>
  <path id="形状_1" data-name="形状 1" class="cls-1" d="M1205,257L782,329,1019,56,641,354,0,465,402,705H730L439,641,293,509,783,375l58,44,224-3L885,378l-14-27Z"/>
  <path id="形状_2" data-name="形状 2" class="cls-1" d="M1544,2L887,285l492-157L1137,528Z"/>
  <path id="形状_3" data-name="形状 3" class="cls-1" d="M1016,528h46l-49,148H967Z"/>
  <path id="形状_4" data-name="形状 4" class="cls-1" d="M1084,594l-25,24h119l-10-24h-84Z"/>
  <path id="形状_5" data-name="形状 5" class="cls-1" d="M1402,528H1250l-26,23-20,63,118,1-10,27-12,10H1185l11,24h133l26-22,20-65-118,1,10-26,13-11h97Z"/>
  <path id="形状_6" data-name="形状 6" class="cls-1" d="M1421,528l-48,148h47l48-148h-47Z"/>
  <path id="Q" class="cls-2" d="M900.023,675.149l-5.189-10.659-12.857,10.659H763l52.621-146.3H981.392l-33.6,93.42L931.723,635.44l20.76,39.709h-52.46Zm-20.76-39.709-16.87-33.021h48.053l18.717-52.04H851.524L814.389,653.623h42.387Z"/>
  <path id="形状_8" data-name="形状 8" class="cls-1" d="M754,695l-5,12h684l6-12H754Z"/>
</svg>
